<svg xmlns="http://www.w3.org/2000/svg" width="1024" height="1024" viewBox="0 0 1024 1024">
  <defs>
    <linearGradient id="primaryGradient" x1="0%" y1="0%" x2="100%" y2="100%">
      <stop offset="0%" stop-color="#00C9A7" />
      <stop offset="100%" stop-color="#0891B2" />
    </linearGradient>
  </defs>
  
  <!-- Background -->
  <rect width="1024" height="1024" fill="url(#primaryGradient)" />
  
  <!-- Icon Group to center and scale it -->
  <g fill="#0A0E17" transform="translate(256, 768) scale(0.53333333)">
    <path d="M160-160q-33 0-56.5-23.5T80-240v-480q0-33 23.5-56.5T160-800h160q33 0 56.5 23.5T400-720v80h160q33 0 56.5 23.5T640-560v320q0 33-23.5 56.5T560-160H160Zm0-80h160v-80H160v80Zm0-160h160v-80H160v80Zm0-160h160v-80H160v80Zm240-80h160v-80H400v80Zm0 80h160v-80H400v80Zm0 80h160v-80H400v80Zm0 80h160v-80H400v80Zm240 80h160v-80H640v80Zm0-160h160v-80H640v80Zm0-160h160v-80H640v80Z"/>
  </g>
</svg>